<?xml version="1.0" encoding="utf-8"?>
<!-- Generator: Adobe Illustrator 19.0.0, SVG Export Plug-In . SVG Version: 6.00 Build 0)  -->
<svg version="1.1" id="Layer_1" xmlns="http://www.w3.org/2000/svg" xmlns:xlink="http://www.w3.org/1999/xlink" x="0px" y="0px"
	 viewBox="243.8 383.4 125.1 25.9" style="enable-background:new 243.8 383.4 125.1 25.9;" xml:space="preserve">
<style type="text/css">
	.st0{fill:#0C1932;}
</style>
<path id="XMLID_81_" class="st0" d="M256.8,396.8l-6.6-13.4h-6.4V409h5.9v-15.3l5.5,11.1h3.2l5.5-11.1V409h5.9v-25.6h-6.4
	L256.8,396.8z M281.7,383.5l-9.3,25.6h6l1.9-5.7h8l2,5.7h6l-9.3-25.6H281.7z M281.3,399.2l3.1-9l3,9H281.3z M316.3,398.2
	c0.5-0.5,1-1.1,1.3-1.7s0.6-1.3,0.8-2.1c0.2-0.7,0.3-1.5,0.3-2.3c0-1.1-0.2-2.1-0.6-3.1s-1-2-1.7-2.8s-1.6-1.5-2.6-2
	s-2.1-0.8-3.3-0.8H299V409h5.9v-8.2h3.9l4.9,8.2h6.7l-5.6-9.5C315.2,399.2,315.8,398.7,316.3,398.2z M311.9,394.6
	c-0.5,0.7-1.1,1-1.8,1h-5.4v-7h5.2c0.7,0,1.3,0.3,1.9,0.9s0.9,1.5,0.9,2.5C312.7,393.1,312.5,394,311.9,394.6z M338.9,402.1
	c-0.4,0.4-0.9,0.8-1.4,1.1c-0.5,0.3-1.1,0.5-1.6,0.6c-0.6,0.1-1.1,0.2-1.6,0.2c-1,0-2-0.2-2.8-0.6s-1.5-1-2.1-1.7s-1-1.5-1.3-2.5
	c-0.3-0.9-0.5-1.9-0.5-2.9c0-0.9,0.1-1.9,0.4-2.8s0.7-1.7,1.2-2.4c0.6-0.7,1.2-1.3,2.1-1.8c0.8-0.5,1.8-0.7,3-0.7
	c0.5,0,1.1,0.1,1.6,0.2c0.6,0.1,1.1,0.3,1.6,0.6c0.5,0.3,1,0.6,1.5,1.1c0.4,0.4,0.8,1,1.1,1.7l4.5-3.2c-0.9-1.7-2.2-3-3.9-4
	c-1.8-1-3.8-1.5-6.2-1.5c-2,0-3.8,0.4-5.4,1.1s-2.9,1.7-4,2.9c-1.1,1.2-1.9,2.6-2.5,4.1s-0.9,3.1-0.9,4.6c0,1.6,0.3,3.2,0.9,4.8
	c0.6,1.6,1.5,3,2.6,4.2s2.4,2.3,4,3c1.5,0.8,3.2,1.1,5.1,1.1c1.1,0,2.1-0.1,3.2-0.4s2.1-0.6,3.1-1.2c1-0.5,1.9-1.1,2.6-1.9
	c0.8-0.7,1.3-1.6,1.7-2.5l-4.8-2.8C339.7,401.1,339.3,401.7,338.9,402.1z M359.6,383.5h-5.3L345,409h6l1.9-5.7h8l2,5.7h6
	L359.6,383.5z M353.9,399.2l3.1-9l3,9H353.9z"/>
</svg>
